<?xml version="1.0" encoding="utf-8"?>
<svg xmlns="http://www.w3.org/2000/svg" viewBox="-2317 14.655 5287.7451 335.594" width="5287.75px" height="335.594px">
  <path d="M 20.527 107.155 C -118.97 96.754 -129.213 56.242 -148.713 56.242 C -168.213 56.242 -170.97 91.679 -320.97 107.155 C -446.97 120.155 -466.699 92.999 -481.199 94.499 C -495.699 95.999 -554.47 169.655 -661.47 156.155 C -768.47 142.655 -779.998 137.842 -791.498 140.842 C -802.998 143.842 -793.44 213.16 -901.47 228.155 C -1060 250.155 -1086 187.971 -1097.5 187.971 C -1109 187.971 -1136 283.155 -1295 250.155 C -1454 217.155 -1448.115 164.714 -1463.115 164.214 C -1478.115 163.714 -1509 176.155 -1697.5 172.155 C -1859.5 168.717 -1855.225 158.953 -1866.725 162.453 C -1878.225 165.953 -1883.5 283.155 -2073.5 340.155 C -2263.5 397.155 -2317 194.155 -2317 194.155 L -2317 14.655 L 2948.03 14.655 L 2970.745 63.898 C 2970.745 63.898 2958.53 108.155 2828.03 114.655 C 2697.53 121.155 2676.415 89.929 2659.415 89.929 C 2642.415 89.929 2628.53 49.155 2593.53 107.655 C 2558.53 166.155 2524.03 183.655 2402.03 187.655 C 2280.03 191.655 2217.488 141.172 2206.488 148.672 C 2195.488 156.172 2172.03 226.155 1993.53 236.155 C 1815.03 246.155 1790.929 162.3 1778.929 159.3 C 1766.929 156.3 1727.03 183.655 1582.03 186.655 C 1437.03 189.655 1347.002 148.099 1336.002 150.599 C 1325.002 153.099 1312.03 181.655 1154.53 215.155 C 997.027 248.655 959.971 225.7 949.471 229.7 C 938.971 233.7 922.527 287.155 835.027 308.655 C 734.517 333.352 676.683 264.613 661.683 262.113 C 646.683 259.613 620.527 291.11 507.527 259.155 C 429.927 237.212 427.284 178.127 415.284 180.627 C 403.284 183.127 381.027 195.195 307.027 172.155 C 183.527 133.703 169.183 99.471 153.683 96.971 C 138.183 94.471 134.527 115.655 20.527 107.155 Z" fill="var(--color-four)" stroke="none" stroke-width="0" vector-effect="non-scaling-stroke"/>
</svg>